# AST/ASF file generated using VICON BodyLanguage
# -----------------------------------------------
:version 1.10
:name VICON
:units
  mass 1.0
  length 0.45
  angle deg
:documentation
   .ast/.asf automatically generated from VICON data using
   VICON BodyBuilder and BodyLanguage model FoxedUp or BRILLIANT.MOD
:root
   order TX TY TZ RX RY RZ
   axis XYZ
   position 0 0 0  
   orientation 0 0 0 
:bonedata
  begin
     id 1 
     name lhipjoint
     direction 0.660183 -0.676772 0.325788 
     length 2.75133 
     axis 0 0 0  XYZ
  end
  begin
     id 2 
     name lfemur
     direction 0.34202 -0.939693 0  
     length 7.70317  
     axis 0 0 20  XYZ
    dof rx ry rz
    limits (-160.0 20.0)
           (-70.0 70.0)
           (-60.0 70.0)
  end
  begin
     id 3 
     name ltibia
     direction 0.342105 -0.939662 0   
     length 7.18701   
     axis 0 0 20   XYZ
    dof rx
    limits (-10.0 170.0)
  end
  begin
     id 4 
     name lfoot
     direction 0.14163 -0.389126 0.910232   
     length 2.41719   
     axis -90 7.62852e-016 20   XYZ
    dof rx rz
    limits (-45.0 90.0)
           (-70.0 20.0)
  end
  begin
     id 5 
     name ltoes
     direction 1.53533e-011 -4.21926e-011 1   
     length 1.18611   
     axis -90 7.62852e-016 20   XYZ
    dof rx
    limits (-90.0 20.0)
  end
  begin
     id 6 
     name rhipjoint
     direction -0.6658 -0.67229 0.323631   
     length 2.76968  
     axis 0 0 0  XYZ 
  end
  begin
     id 7 
     name rfemur
     direction -0.34202 -0.939693 0   
     length 7.92547   
     axis 0 0 -20   XYZ
    dof rx ry rz
    limits (-160.0 20.0)
           (-70.0 70.0)
           (-70.0 60.0)
  end
  begin
     id 8 
     name rtibia
     direction -0.342022 -0.939692 0   
     length 7.22641   
     axis 0 0 -20   XYZ
    dof rx
    limits (-10.0 170.0)
 end
 begin
     id 9 
     name rfoot
     direction -0.105675 -0.29034 0.951071   
     length 2.48149  
     axis -90 -7.62852e-016 -20   XYZ
    dof rx rz
    limits (-45.0 90.0)
           (-20.0 70.0)
  end
  begin
     id 10 
     name rtoes
     direction -1.5349e-011 -4.21859e-011 1   
     length 1.23343   
     axis -90 -7.62852e-016 -20   XYZ
    dof rx
    limits (-90.0 20.0)
  end
  begin
     id 11 
     name lowerback
     direction 0.0104173 0.993624 -0.112266   
     length 2.00527   
     axis 0 0 0   XYZ
    dof rx ry rz
    limits (-20.0 45.0)
           (-30.0 30.0)
           (-30.0 30.0)
  end
  begin
     id 12 
     name upperback
     direction 0.00733149 0.999856 -0.0152913   
     length 2.01385   
     axis 0 0 0   XYZ
    dof rx ry rz
    limits (-20.0 45.0)
           (-30.0 30.0)
           (-30.0 30.0)
  end
  begin
     id 13 
     name thorax
     direction 0.0026304 0.999318 0.036841   
     length 2.03734   
     axis 0 0 0   XYZ
    dof rx ry rz
    limits (-20.0 45.0)
           (-30.0 30.0)
           (-30.0 30.0)
  end
  begin
     id 14 
     name lowerneck
     direction 0.0293154 0.998757 0.0403082   
     length 1.65303   
     axis 0 0 0   XYZ
    dof rx ry rz
    limits (-20.0 45.0)
           (-30.0 30.0)
           (-30.0 30.0)
  end
  begin
     id 15 
     name upperneck
     direction -0.0376619 0.998184 -0.0470083   
     length 1.60926   
     axis 0 0 0   XYZ
    dof rx ry rz
    limits (-20.0 45.0)
           (-30.0 30.0)
           (-30.0 30.0)
  end
  begin
     id 16
     name head
     direction -0.0170133 0.999635 -0.0209778  
     length 1.73625  
     axis 0 0 0   XYZ
    dof rx ry rz
    limits (-20.0 45.0)
           (-30.0 30.0)
           (-30.0 30.0)
  end
  begin
     id 17 
     name lclavicle
     direction 0.919857 0.39181 -0.0186333  
     length 3.75313  
     axis 0 0 0   XYZ
    dof ry rz
    limits (-20.0 10.0)
           (0.0 20.0)
  end
  begin
     id 18 
     name lhumerus
     direction 1 -4.48988e-011 1.44029e-027   
     length 5.49313   
     axis 180 -30 -90   XYZ
    dof rx ry rz
    limits (-60.0 90.0)
           (-90.0 90.0)
           (-90.0 90.0)
  end
  begin
     id 19
     name lradius
     direction 1 -4.48924e-011 7.46281e-027   
     length 3.29037   
     axis 180 -30 -90   XYZ
    dof rx
    limits (-10.0 170.0)
  end
  begin
     id 20
     name lwrist
     direction 1 -4.48955e-011 2.19879e-026   
     length 1.64519   
     axis -1.34358e-014 90 90   XYZ
    dof ry
    limits (-180.0 0.0)
 end
  begin
     id 21 
     name lhand
     direction 1 -4.48978e-011 4.39747e-026   
     length 0.729656   
     axis -2.80598e-014 90 90   XYZ
    dof rx rz
    limits (-90.0 90.0)
           (-45.0 45.0)
  end
  begin
     id 22 
     name lfingers
     direction 1 -4.49071e-011 8.79411e-026   
     length 0.588268   
     axis -5.61193e-014 90 90   XYZ
    dof rx
    limits (0.0 90.0)
  end
  begin
     id 23
     name lthumb
     direction 0.707107 -6.34817e-011 0.707107   
     length 0.844638   
     axis -90 45 -9.86923e-015   XYZ
    dof rx rz
    limits (-45.0 45.0)
           (-45.0 45.0)
  end
  begin
     id 24 
     name rclavicle
     direction -0.919898 0.388279 0.0550233   
     length 3.7171  
     axis 0 0 0   XYZ 
    dof ry rz
    limits (-10.0 20.0)
           (-20.0 0.0)
  end
  begin
     id 25 
     name rhumerus
     direction -1 -4.48968e-011 9.98372e-028  
     length 5.23684   
     axis 180 30 90   XYZ
    dof rx ry rz
    limits (-90.0 60.0)
           (-90.0 90.0)
           (-90.0 90.0)
  end
  begin
     id 26 
     name rradius
     direction -1 -4.48956e-011 1.01023e-026   
     length 3.38251   
     axis 180 30 90   XYZ
    dof rx
    limits (-10.0 170.0)
  end
  begin
     id 27 
     name rwrist
     direction -1 -4.4892e-011 2.19886e-026   
     length 1.69126   
     axis -1.34358e-014 -90 -90   XYZ
    dof ry
    limits (-180.0 0.0)
  end
  begin
     id 28
     name rhand
     direction -1 -4.49024e-011 4.39727e-026   
     length 0.691454   
     axis -2.80598e-014 -90 -90   XYZ
    dof rx rz
    limits (-90.0 90.0)
           (-45.0 45.0)
  end
  begin
     id 29
     name rfingers
     direction -1 -4.49097e-011 8.79388e-026   
     length 0.557468   
     axis -5.61193e-014 -90 -90   XYZ
    dof rx
    limits (0.0 90.0)
  end
  begin
     id 30
     name rthumb
     direction -0.707107 -6.34938e-011 0.707107   
     length 0.800416   
     axis -90 -45 9.86923e-015   XYZ
    dof rx rz
    limits (-45.0 45.0)
           (-45.0 45.0)
  end
:hierarchy
  begin
    root lhipjoint rhipjoint lowerback
    lhipjoint lfemur
    lfemur ltibia
    ltibia lfoot
    lfoot ltoes
    rhipjoint rfemur
    rfemur rtibia
    rtibia rfoot
    rfoot rtoes
    lowerback upperback
    upperback thorax
    thorax lowerneck lclavicle rclavicle
    lowerneck upperneck
    upperneck head
    lclavicle lhumerus
    lhumerus lradius
    lradius lwrist
    lwrist lhand lthumb
    lhand lfingers
    rclavicle rhumerus
    rhumerus rradius
    rradius rwrist
    rwrist rhand rthumb
    rhand rfingers
  end

#!OML:ASF H:\BabyWalks\Project 1\Capture day 1\Session 1\baby.ASF
:FULLY-SPECIFIED
:DEGREES
172
root -30.3855 17.4325 -3.05273 -20.4145 71.8786 -27.087
lowerback 18.4563 0.632875 -6.82659
upperback 5.09291 -0.331161 -3.36465
thorax -4.80278 -0.00251372 0.343686
lowerneck -0.386479 3.3828 2.00947
upperneck -11.0835 5.28251 4.4138
head -3.59998 2.48101 0.933947
rclavicle -1.66979e-014 3.18055e-014
rhumerus -49.3287 11.0084 -87.4188
rradius 44.7731
rwrist 1.12753
rhand -9.11396 -17.3101
rfingers 7.12502
rthumb 16.8367 -46.6002
lclavicle -1.66979e-014 3.18055e-014
lhumerus -41.4321 -20.4473 72.2199
lradius 65.2513
lwrist 5.0705
lhand -7.90556 13.098
lfingers 7.12502
lthumb 17.9997 42.2851
rfemur -25.1645 1.29214 24.7014
rtibia 53.0628
rfoot -17.0253 17.2278
rtoes -13.5087
lfemur -7.59404 1.54458 -13.1026
ltibia 33.4341
lfoot -33.8067 -7.53987
ltoes 3.26339
173
root -30.2916 17.4446 -3.03703 -20.0191 72.102 -26.8616
lowerback 18.4249 0.554297 -6.94076
upperback 4.99015 -0.459863 -3.26967
thorax -4.88733 -0.0637252 0.537348
lowerneck -0.377589 3.35308 2.05856
upperneck -11.0099 5.23404 4.38425
head -3.57232 2.4563 0.917454
rclavicle 7.4743e-014 -1.59028e-014
rhumerus -49.3935 10.8532 -87.0752
rradius 44.2616
rwrist 1.71222
rhand -8.94301 -17.1585
rfingers 7.12502
rthumb 17.0013 -46.4345
lclavicle 7.4743e-014 -1.59028e-014
lhumerus -41.3967 -20.6463 72.1996
lradius 65.7354
lwrist 4.9322
lhand -8.1754 12.8508
lfingers 7.12502
lthumb 17.7401 42.0615
rfemur -25.836 1.41983 24.7236
rtibia 52.0883
rfoot -17.1942 17.0434
rtoes -13.5233
lfemur -7.12518 1.22169 -13.322
ltibia 32.7046
lfoot -33.6256 -7.54043
ltoes 3.34452
174
root -30.1946 17.458 -3.02098 -19.6296 72.3274 -26.6675
lowerback 18.3751 0.471136 -7.0258
upperback 4.86659 -0.589592 -3.16116
thorax -4.98394 -0.125281 0.729413
lowerneck -0.366655 3.32127 2.10683
upperneck -10.9064 5.18103 4.36053
head -3.53482 2.42952 0.903244
rclavicle 3.18055e-015 4.77083e-014
rhumerus -49.4767 10.7063 -86.7191
rradius 43.7626
rwrist 2.23765
rhand -8.67239 -17.0078
rfingers 7.12502
rthumb 17.2618 -46.2612
lclavicle 3.18055e-015 4.77083e-014
lhumerus -41.4317 -20.8122 72.2168
lradius 66.2006
lwrist 4.78454
lhand -8.4452 12.634
lfingers 7.12502
lthumb 17.4804 41.8681
rfemur -26.477 1.57326 24.7439
rtibia 50.9809
rfoot -17.3056 16.8938
rtoes -13.3783
lfemur -6.66273 0.891286 -13.5288
ltibia 31.9508
lfoot -33.4153 -7.55308
ltoes 3.37729
175
root -30.0937 17.4724 -3.00423 -19.2971 72.5627 -26.5504
lowerback 18.2999 0.381404 -7.07627
upperback 4.73019 -0.720043 -3.03348
thorax -5.08047 -0.187452 0.922797
lowerneck -0.361098 3.28641 2.16093
upperneck -10.7741 5.12153 4.33526
head -3.48599 2.39987 0.887935
rclavicle 4.05521e-014 1.27222e-014
rhumerus -49.5598 10.5433 -86.3332
rradius 43.2595
rwrist 2.70244
rhand -8.31006 -16.8538
rfingers 7.12502
rthumb 17.6105 -46.0762
lclavicle 4.05521e-014 1.27222e-014
lhumerus -41.5292 -20.9428 72.2754
lradius 66.6419
lwrist 4.63262
lhand -8.70955 12.4393
lfingers 7.12502
lthumb 17.226 41.6957
rfemur -27.0583 1.74518 24.774
rtibia 49.7136
rfoot -17.3599 16.7907
rtoes -13.0769
lfemur -6.17563 0.547841 -13.7088
ltibia 31.1223
lfoot -33.1452 -7.59083
ltoes 3.34015
176
root -29.9894 17.4877 -2.98673 -19.0345 72.8095 -26.5308
lowerback 18.1998 0.282288 -7.08492
upperback 4.57548 -0.854186 -2.88774
thorax -5.18289 -0.251606 1.11276
lowerneck -0.354481 3.24931 2.2192
upperneck -10.6196 5.0575 4.31011
head -3.42957 2.36811 0.872152
rclavicle -6.36111e-014 -2.54444e-014
rhumerus -49.6486 10.3546 -85.9163
rradius 42.7576
rwrist 3.10492
rhand -7.85977 -16.7027
rfingers 7.12502
rthumb 18.0438 -45.8858
lclavicle -6.36111e-014 -2.54444e-014
lhumerus -41.6863 -21.0311 72.373
lradius 67.0481
lwrist 4.48052
lhand -8.95926 12.2685
lfingers 7.12502
lthumb 16.9857 41.5458
rfemur -27.5968 1.94126 24.8166
rtibia 48.3263
rfoot -17.3561 16.7665
rtoes -12.5201
lfemur -5.70178 0.191665 -13.8555
ltibia 30.2819
lfoot -32.8513 -7.65134
ltoes 3.20795
177
root -29.8801 17.5035 -2.96832 -18.8842 73.0713 -26.6277
lowerback 18.0849 0.172866 -7.04477
upperback 4.41002 -0.991971 -2.72568
thorax -5.28876 -0.317828 1.29345
lowerneck -0.351645 3.20998 2.28564
upperneck -10.4414 4.9888 4.28377
head -3.3641 2.33424 0.854872
rclavicle -5.88403e-014 -2.22639e-014
rhumerus -49.7439 10.1289 -85.4669
rradius 42.2549
rwrist 3.45254
rhand -7.34061 -16.5796
rfingers 7.12502
rthumb 18.5432 -45.7157
lclavicle -5.88403e-014 -2.22639e-014
lhumerus -41.9166 -21.0799 72.5099
lradius 67.4343
lwrist 4.33364
lhand -9.19039 12.126
lfingers 7.12502
lthumb 16.7632 41.4223
rfemur -28.0599 2.15626 24.8756
rtibia 46.8374
rfoot -17.3552 16.8039
rtoes -11.9058
lfemur -5.21513 -0.183544 -13.9652
ltibia 29.4408
lfoot -32.541 -7.73713
ltoes 3.00213
178
root -29.7664 17.5193 -2.949 -18.8467 73.3467 -26.8461
lowerback 17.9488 0.0542051 -6.95945
upperback 4.23427 -1.1319 -2.54471
thorax -5.39414 -0.385593 1.46918
lowerneck -0.343883 3.16877 2.36516
upperneck -10.2556 4.91587 4.24068
head -3.29618 2.29838 0.829955
rclavicle 5.00937e-014 -6.36111e-015
rhumerus -49.838 9.85979 -84.9761
rradius 41.7479
rwrist 3.75375
rhand -6.76988 -16.4955
rfingers 7.12502
rthumb 19.0921 -45.5784
lclavicle 5.00937e-014 -6.36111e-015
lhumerus -42.2038 -21.0908 72.6867
lradius 67.7881
lwrist 4.2077
lhand -9.40049 12.0045
lfingers 7.12502
lthumb 16.5609 41.3179
rfemur -28.4575 2.39295 24.9515
rtibia 45.2746
rfoot -17.3847 16.8834
rtoes -11.3764
lfemur -4.7288 -0.571554 -14.0371
ltibia 28.614
lfoot -32.2202 -7.84958
ltoes 2.61533
179
root -29.6492 17.5346 -2.92899 -18.9289 73.6438 -27.2055
lowerback 17.7791 -0.0760223 -6.82815
upperback 4.05042 -1.27555 -2.3433
thorax -5.48992 -0.456083 1.64115
lowerneck -0.340203 3.12949 2.46308
upperneck -10.0667 4.8433 4.17118
head -3.22537 2.26305 0.793408
rclavicle -1.19271e-014 -2.06736e-014
rhumerus -49.9212 9.54557 -84.4404
rradius 41.2395
rwrist 4.01426
rhand -6.16818 -16.4395
rfingers 7.12502
rthumb 19.6707 -45.4643
lclavicle -1.19271e-014 -2.06736e-014
lhumerus -42.5395 -21.0639 72.9028
lradius 68.1128
lwrist 4.10615
lhand -9.58243 11.8952
lfingers 7.12502
lthumb 16.3857 41.2231
rfemur -28.8116 2.64249 25.0446
rtibia 43.6723
rfoot -17.4326 16.9977
rtoes -10.8191
lfemur -4.27173 -0.96488 -14.0688
ltibia 27.8172
lfoot -31.8868 -7.99971
ltoes 2.23969
180
root -29.5283 17.5486 -2.90839 -19.1113 73.9411 -27.6735
lowerback 17.5848 -0.210159 -6.65557
upperback 3.85707 -1.41493 -2.12416
thorax -5.58289 -0.525174 1.80723
lowerneck -0.333986 3.09134 2.58066
upperneck -9.88265 4.77004 4.06689
head -3.15544 2.22765 0.742256
rclavicle -3.65764e-014 -1.43125e-014
rhumerus -50.0041 9.1947 -83.8663
rradius 40.7383
rwrist 4.24998
rhand -5.5514 -16.4298
rfingers 7.12502
rthumb 20.2635 -45.3928
lclavicle -3.65764e-014 -1.43125e-014
lhumerus -42.927 -20.9963 73.1582
lradius 68.4017
lwrist 4.02937
lhand -9.73529 11.7805
lfingers 7.12502
lthumb 16.2385 41.1204
rfemur -29.1146 2.91822 25.1525
rtibia 42.0684
rfoot -17.4838 17.124
rtoes -10.3701
lfemur -3.83354 -1.34164 -14.0659
ltibia 27.0695
lfoot -31.5554 -8.18112
ltoes 1.84772
181
root -29.4046 17.561 -2.88735 -19.3659 74.2485 -28.2273
lowerback 17.3568 -0.346786 -6.45567
upperback 3.65841 -1.5496 -1.88684
thorax -5.66326 -0.592818 1.97527
lowerneck -0.318295 3.0527 2.72793
upperneck -9.72344 4.69417 3.90891
head -3.09375 2.19098 0.668625
rclavicle -4.69132e-014 -2.22639e-014
rhumerus -50.0806 8.8094 -83.2511
rradius 40.2523
rwrist 4.46982
rhand -4.95018 -16.4672
rfingers 7.12502
rthumb 20.8413 -45.3678
lclavicle -4.69132e-014 -2.22639e-014
lhumerus -43.3575 -20.8929 73.4543
lradius 68.6621
lwrist 3.97807
lhand -9.85144 11.6616
lfingers 7.12502
lthumb 16.1267 41.0106
rfemur -29.3817 3.20646 25.2644
rtibia 40.5024
rfoot -17.5669 17.2148
rtoes -10.0845
lfemur -3.43723 -1.69375 -14.0394
ltibia 26.3894
lfoot -31.2199 -8.40205
ltoes 1.5079
